{
	"asset":{
		"generator":"Khronos glTF Blender I/O v4.3.47",
		"version":"2.0"
	},
	"scene":0,
	"scenes":[
		{
			"name":"Scene",
			"nodes":[
				35
			]
		}
	],
	"nodes":[
		{
			"name":"Object_5",
			"rotation":[
				-0.70710688829422,
				0,
				0,
				0.7071066498756409
			],
			"translation":[
				-11.926545143127441,
				-3.542379379272461,
				-0.20464706420898438
			]
		},
		{
			"name":"mixamorig:HeadTop_End",
			"rotation":[
				-7.101333920900288e-08,
				2.095475348795617e-09,
				3.6088749766349792e-09,
				1
			],
			"scale":[
				0.9999999403953552,
				1.0000001192092896,
				1.0000001192092896
			],
			"translation":[
				-9.284260045205883e-07,
				25.541872024536133,
				6.746692180633545
			]
		},
		{
			"children":[
				1
			],
			"name":"mixamorig:Head_05",
			"rotation":[
				4.6559513577904e-08,
				1.3045128532951367e-08,
				1.9949563495705617e-15,
				1
			],
			"translation":[
				9.832908709483945e-09,
				1.2377318143844604,
				0.3269374966621399
			]
		},
		{
			"children":[
				2
			],
			"name":"mixamorig:Neck_04",
			"rotation":[
				0.0313192643225193,
				5.591803020621455e-09,
				6.419104137123099e-10,
				0.9995094537734985
			],
			"scale":[
				1,
				0.9999998807907104,
				1
			],
			"translation":[
				1.5916441498120548e-08,
				8.574816703796387,
				-4.736387211323745e-07
			]
		},
		{
			"name":"mixamorig:LeftHand_09",
			"rotation":[
				-3.4779084057134924e-09,
				-1.797161974792516e-09,
				3.3905966922986863e-09,
				1
			],
			"scale":[
				0.9999999403953552,
				0.9999999403953552,
				0.9999998211860657
			],
			"translation":[
				3.814697265625e-06,
				26.083250045776367,
				5.6609511375427246e-05
			]
		},
		{
			"children":[
				4
			],
			"name":"mixamorig:LeftForeArm_08",
			"rotation":[
				-0.035026829689741135,
				-0.000658105593174696,
				0.01877731643617153,
				0.9992097616195679
			],
			"scale":[
				1,
				1.000000238418579,
				1.0000001192092896
			],
			"translation":[
				-2.7418136596679688e-06,
				18.814783096313477,
				-4.963576793670654e-05
			]
		},
		{
			"children":[
				5
			],
			"name":"mixamorig:LeftArm_07",
			"rotation":[
				-0.06778707355260849,
				0.0001439970947103575,
				-0.0021161178592592478,
				0.9976975917816162
			],
			"scale":[
				0.9999999403953552,
				0.9999999403953552,
				0.9999999403953552
			],
			"translation":[
				8.642673492431641e-07,
				11.87076187133789,
				1.0669231414794922e-05
			]
		},
		{
			"children":[
				6
			],
			"name":"mixamorig:LeftShoulder_06",
			"rotation":[
				0.5409396886825562,
				0.4532047510147095,
				-0.5508559346199036,
				0.4455866515636444
			],
			"scale":[
				0.9999998807907104,
				1,
				0.9999998807907104
			],
			"translation":[
				5.689950466156006,
				7.391380786895752,
				-0.10497298836708069
			]
		},
		{
			"name":"mixamorig:RightHand_013",
			"rotation":[
				-6.039045707950663e-09,
				-9.44055611462602e-10,
				-3.5943235054958222e-09,
				1
			],
			"scale":[
				0.9999999403953552,
				0.9999999403953552,
				0.9999999403953552
			],
			"translation":[
				-1.7285346984863281e-06,
				26.08126449584961,
				2.8371810913085938e-05
			]
		},
		{
			"children":[
				8
			],
			"name":"mixamorig:RightForeArm_012",
			"rotation":[
				-0.03505066782236099,
				0.0006764669669792056,
				-0.01927967555820942,
				0.999199390411377
			],
			"scale":[
				0.9999999403953552,
				0.9999999403953552,
				1.0000001192092896
			],
			"translation":[
				-2.384185791015625e-06,
				18.818050384521484,
				3.466755151748657e-05
			]
		},
		{
			"children":[
				9
			],
			"name":"mixamorig:RightArm_011",
			"rotation":[
				-0.06834498047828674,
				-0.0007786391652189195,
				0.011364499107003212,
				0.9975967407226562
			],
			"scale":[
				0.9999999403953552,
				0.9999998807907104,
				0.9999997615814209
			],
			"translation":[
				-2.1532177925109863e-06,
				11.870759963989258,
				2.3506581783294678e-05
			]
		},
		{
			"children":[
				10
			],
			"name":"mixamorig:RightShoulder_010",
			"rotation":[
				0.544021487236023,
				-0.4507138431072235,
				0.5481078028678894,
				0.4477449059486389
			],
			"scale":[
				0.9999998807907104,
				1,
				0.9999998807907104
			],
			"translation":[
				-5.689951419830322,
				7.387547492980957,
				-0.04374154657125473
			]
		},
		{
			"children":[
				3,
				7,
				11
			],
			"name":"mixamorig:Spine2_03",
			"rotation":[
				1.862645326866641e-08,
				-1.862644793959589e-08,
				6.635876337356475e-16,
				1
			],
			"scale":[
				1,
				0.9999999403953552,
				0.9999999403953552
			],
			"translation":[
				1.1003866262626616e-08,
				7.622046947479248,
				-7.636658096998872e-07
			]
		},
		{
			"mesh":1,
			"name":"G_Mochila_MTA_Mochila_0",
			"translation":[
				0,
				-1.942366361618042e-05,
				-5.5283308029174805e-06
			]
		},
		{
			"children":[
				13
			],
			"name":"G_Mochila",
			"rotation":[
				-0.010505560785531998,
				0.027360539883375168,
				-0.007551574148237705,
				0.9995418787002563
			],
			"scale":[
				1.0000001192092896,
				1,
				1
			],
			"translation":[
				4.285811424255371,
				-0.11304348707199097,
				14.148648262023926
			]
		},
		{
			"children":[
				12,
				14
			],
			"name":"mixamorig:Spine1_02",
			"rotation":[
				3.725290742551124e-09,
				-1.6069819253061723e-08,
				3.5548540781186533e-16,
				1
			],
			"scale":[
				1,
				0.9999999403953552,
				0.9999999403953552
			],
			"translation":[
				1.6407961211939437e-08,
				6.669318675994873,
				-3.0973239972809097e-07
			]
		},
		{
			"children":[
				15
			],
			"name":"mixamorig:Spine_01",
			"rotation":[
				-0.031319212168455124,
				1.3815413701934176e-08,
				-2.207112714813775e-09,
				0.9995094537734985
			],
			"translation":[
				3.582897889486958e-08,
				5.705345153808594,
				-0.3579006791114807
			]
		},
		{
			"name":"mixamorig:LeftToe_End",
			"rotation":[
				-5.681159009895964e-08,
				9.31140675675124e-09,
				2.0953481172369948e-09,
				1
			],
			"scale":[
				0.9999998807907104,
				0.9999999403953552,
				1
			],
			"translation":[
				2.9080547392368317e-07,
				6.162987232208252,
				1.6237609088420868e-06
			]
		},
		{
			"children":[
				17
			],
			"name":"mixamorig:LeftToeBase_017",
			"rotation":[
				0.37007075548171997,
				-0.02468675933778286,
				0.009838143363595009,
				0.9286234378814697
			],
			"scale":[
				0.9999998807907104,
				0.9999999403953552,
				1
			],
			"translation":[
				-5.424022674560547e-06,
				16.101640701293945,
				1.3150274753570557e-06
			]
		},
		{
			"children":[
				18
			],
			"name":"mixamorig:LeftFoot_016",
			"rotation":[
				0.41406574845314026,
				-0.015026411972939968,
				0.006836379878222942,
				0.9100973010063171
			],
			"scale":[
				0.9999998807907104,
				1,
				0.9999998211860657
			],
			"translation":[
				6.27199187874794e-06,
				30.968441009521484,
				-3.680586814880371e-06
			]
		},
		{
			"children":[
				19
			],
			"name":"mixamorig:LeftLeg_015",
			"rotation":[
				-0.05121231451630592,
				0.00018756742065306753,
				-0.0036592010874301195,
				0.9986810684204102
			],
			"scale":[
				0.9999998807907104,
				1,
				0.9999999403953552
			],
			"translation":[
				5.090143531560898e-06,
				30.27400016784668,
				-8.719289326108992e-07
			]
		},
		{
			"children":[
				20
			],
			"name":"mixamorig:LeftUpLeg_014",
			"rotation":[
				-0.0006797175155952573,
				-0.030056480318307877,
				-0.9992939233779907,
				0.022534480318427086
			],
			"scale":[
				1.0000029802322388,
				0.9999999403953552,
				1.0000051259994507
			],
			"translation":[
				8.880219459533691,
				-3.1700210571289062,
				-0.4992668032646179
			]
		},
		{
			"name":"mixamorig:RightToe_End",
			"rotation":[
				-8.290133735044947e-08,
				1.875377853011173e-09,
				-5.848661555063472e-09,
				1
			],
			"scale":[
				1,
				1.0000001192092896,
				1.0000001192092896
			],
			"translation":[
				-2.2631138563156128e-07,
				6.252225875854492,
				-1.410115510225296e-05
			]
		},
		{
			"children":[
				22
			],
			"name":"mixamorig:RightToeBase_021",
			"rotation":[
				0.3672766089439392,
				0.02452467568218708,
				-0.009687948040664196,
				0.92973792552948
			],
			"scale":[
				0.9999999403953552,
				1.0000001192092896,
				1
			],
			"translation":[
				4.351139068603516e-06,
				16.204801559448242,
				-1.0728836059570312e-06
			]
		},
		{
			"children":[
				23
			],
			"name":"mixamorig:RightFoot_020",
			"rotation":[
				0.4183366894721985,
				0.014788713306188583,
				-0.006812159903347492,
				0.90814608335495
			],
			"scale":[
				0.9999998211860657,
				0.9999998807907104,
				0.9999998211860657
			],
			"translation":[
				-4.227505996823311e-06,
				30.9730167388916,
				-3.7439167499542236e-06
			]
		},
		{
			"children":[
				24
			],
			"name":"mixamorig:RightLeg_019",
			"rotation":[
				-0.052162911742925644,
				-0.0001910665596369654,
				0.003660144517198205,
				0.9986318945884705
			],
			"scale":[
				0.9999998807907104,
				0.9999999403953552,
				1
			],
			"translation":[
				-2.782326191663742e-06,
				30.271345138549805,
				-5.4292831919156015e-06
			]
		},
		{
			"children":[
				25
			],
			"name":"mixamorig:RightUpLeg_018",
			"rotation":[
				-0.0006630542338825762,
				0.029322076588869095,
				0.9993157386779785,
				0.022536970674991608
			],
			"scale":[
				1.0000029802322388,
				1.0000001192092896,
				1.000004768371582
			],
			"translation":[
				-8.880219459533691,
				-3.1700210571289062,
				-0.4502669870853424
			]
		},
		{
			"children":[
				16,
				21,
				26
			],
			"name":"mixamorig:Hips_00",
			"rotation":[
				-1.5639994188632045e-08,
				1.1210385508775289e-08,
				-1.753302349581442e-16,
				1
			],
			"translation":[
				0.21464410424232483,
				70.5715560913086,
				0.5145568251609802
			]
		},
		{
			"children":[
				27
			],
			"name":"_rootJoint",
			"rotation":[
				-8.557136332854043e-09,
				1.7114272665708086e-08,
				-2.928983286277023e-16,
				1
			]
		},
		{
			"mesh":0,
			"name":"Object_6",
			"skin":0
		},
		{
			"name":"Object_7",
			"rotation":[
				-0.70710688829422,
				0,
				0,
				0.7071066498756409
			],
			"translation":[
				-11.926545143127441,
				-3.542379379272461,
				-0.20464706420898438
			]
		},
		{
			"mesh":2,
			"name":"Object_8",
			"skin":0
		},
		{
			"children":[
				0,
				29,
				30,
				31,
				28
			],
			"name":"Object_3"
		},
		{
			"children":[
				32
			],
			"name":"RootNode"
		},
		{
			"children":[
				33
			],
			"name":"af7684a6233042e7945f37bb73261cf5.fbx",
			"rotation":[
				0.70710688829422,
				0,
				0,
				0.7071066498756409
			]
		},
		{
			"children":[
				34
			],
			"name":"Sketchfab_model",
			"rotation":[
				-0.70710688829422,
				0,
				0,
				0.7071066498756409
			]
		}
	],
	"materials":[
		{
			"doubleSided":true,
			"name":"MTA_Astronauta.001"
		},
		{
			"doubleSided":true,
			"name":"MTA_Mochila.001"
		}
	],
	"meshes":[
		{
			"name":"G_Cuerpo_MTA_Astronauta_0.001",
			"primitives":[
				{
					"attributes":{
						"POSITION":0,
						"NORMAL":1,
						"TEXCOORD_0":2,
						"JOINTS_0":3,
						"WEIGHTS_0":4
					},
					"indices":5,
					"material":0
				}
			]
		},
		{
			"name":"G_Mochila_MTA_Mochila_0.001",
			"primitives":[
				{
					"attributes":{
						"POSITION":7,
						"NORMAL":8,
						"TEXCOORD_0":9
					},
					"indices":10,
					"material":1
				}
			]
		},
		{
			"name":"G_Casco_MTA_Astronauta_0.001",
			"primitives":[
				{
					"attributes":{
						"POSITION":11,
						"NORMAL":12,
						"TEXCOORD_0":13,
						"JOINTS_0":14,
						"WEIGHTS_0":15
					},
					"indices":16,
					"material":0
				}
			]
		}
	],
	"skins":[
		{
			"inverseBindMatrices":6,
			"joints":[
				28,
				27,
				16,
				15,
				12,
				3,
				2,
				7,
				6,
				5,
				4,
				11,
				10,
				9,
				8,
				21,
				20,
				19,
				18,
				26,
				25,
				24,
				23
			],
			"name":"Object_3"
		}
	],
	"accessors":[
		{
			"bufferView":0,
			"componentType":5126,
			"count":4488,
			"max":[
				82.6635971069336,
				102.06310272216797,
				18.629785537719727
			],
			"min":[
				-82.23430633544922,
				-4.969198226928711,
				-11.922633171081543
			],
			"type":"VEC3"
		},
		{
			"bufferView":1,
			"componentType":5126,
			"count":4488,
			"type":"VEC3"
		},
		{
			"bufferView":2,
			"componentType":5126,
			"count":4488,
			"type":"VEC2"
		},
		{
			"bufferView":3,
			"componentType":5121,
			"count":4488,
			"type":"VEC4"
		},
		{
			"bufferView":4,
			"componentType":5126,
			"count":4488,
			"type":"VEC4"
		},
		{
			"bufferView":5,
			"componentType":5123,
			"count":17004,
			"type":"SCALAR"
		},
		{
			"bufferView":6,
			"componentType":5126,
			"count":23,
			"type":"MAT4"
		},
		{
			"bufferView":7,
			"componentType":5126,
			"count":6438,
			"max":[
				17.40825080871582,
				66.33971405029297,
				3.756944179534912
			],
			"min":[
				-21.11891746520996,
				-25.88814353942871,
				-46.77226638793945
			],
			"type":"VEC3"
		},
		{
			"bufferView":8,
			"componentType":5126,
			"count":6438,
			"type":"VEC3"
		},
		{
			"bufferView":9,
			"componentType":5126,
			"count":6438,
			"type":"VEC2"
		},
		{
			"bufferView":10,
			"componentType":5123,
			"count":14748,
			"type":"SCALAR"
		},
		{
			"bufferView":11,
			"componentType":5126,
			"count":1612,
			"max":[
				14.482623100280762,
				126.56890106201172,
				15.167646408081055
			],
			"min":[
				-14.053330421447754,
				84.95447540283203,
				-11.154296875
			],
			"type":"VEC3"
		},
		{
			"bufferView":12,
			"componentType":5126,
			"count":1612,
			"type":"VEC3"
		},
		{
			"bufferView":13,
			"componentType":5126,
			"count":1612,
			"type":"VEC2"
		},
		{
			"bufferView":14,
			"componentType":5121,
			"count":1612,
			"type":"VEC4"
		},
		{
			"bufferView":15,
			"componentType":5126,
			"count":1612,
			"type":"VEC4"
		},
		{
			"bufferView":16,
			"componentType":5123,
			"count":6288,
			"type":"SCALAR"
		}
	],
	"bufferViews":[
		{
			"buffer":0,
			"byteLength":53856,
			"byteOffset":0,
			"target":34962
		},
		{
			"buffer":0,
			"byteLength":53856,
			"byteOffset":53856,
			"target":34962
		},
		{
			"buffer":0,
			"byteLength":35904,
			"byteOffset":107712,
			"target":34962
		},
		{
			"buffer":0,
			"byteLength":17952,
			"byteOffset":143616,
			"target":34962
		},
		{
			"buffer":0,
			"byteLength":71808,
			"byteOffset":161568,
			"target":34962
		},
		{
			"buffer":0,
			"byteLength":34008,
			"byteOffset":233376,
			"target":34963
		},
		{
			"buffer":0,
			"byteLength":1472,
			"byteOffset":267384
		},
		{
			"buffer":0,
			"byteLength":77256,
			"byteOffset":268856,
			"target":34962
		},
		{
			"buffer":0,
			"byteLength":77256,
			"byteOffset":346112,
			"target":34962
		},
		{
			"buffer":0,
			"byteLength":51504,
			"byteOffset":423368,
			"target":34962
		},
		{
			"buffer":0,
			"byteLength":29496,
			"byteOffset":474872,
			"target":34963
		},
		{
			"buffer":0,
			"byteLength":19344,
			"byteOffset":504368,
			"target":34962
		},
		{
			"buffer":0,
			"byteLength":19344,
			"byteOffset":523712,
			"target":34962
		},
		{
			"buffer":0,
			"byteLength":12896,
			"byteOffset":543056,
			"target":34962
		},
		{
			"buffer":0,
			"byteLength":6448,
			"byteOffset":555952,
			"target":34962
		},
		{
			"buffer":0,
			"byteLength":25792,
			"byteOffset":562400,
			"target":34962
		},
		{
			"buffer":0,
			"byteLength":12576,
			"byteOffset":588192,
			"target":34963
		}
	],
	"buffers":[
		{
			"byteLength":600768,
			"uri":"astronauta.bin"
		}
	]
}
